<svg width="2500" height="3580" viewBox="0 0 2500 3580" fill="none" xmlns="http://www.w3.org/2000/svg">
<g clip-path="url(#clip0_711_2686)">
<rect width="2500" height="3580" fill="#061B2F"/>
<path d="M647.77 1250H391V1164.55H561.717V1079.1H413.207C406.73 1079.1 401.41 1077.01 397.246 1072.84C393.082 1068.21 391 1062.89 391 1056.87V758.829C391 752.345 393.082 747.018 397.246 742.85C401.41 738.682 406.73 736.597 413.207 736.597H647.77V1250ZM561.717 992.951V822.049H476.359V992.951H561.717Z" fill="#F5EFE0"/>
<path d="M774.55 565V1079.1H689.192V565H774.55Z" fill="#F5EFE0"/>
<path d="M1072.69 736.597V1250H901.282V1164.55H986.641V1079.1H838.13C831.653 1079.1 826.333 1077.01 822.169 1072.84C818.005 1068.21 815.923 1062.89 815.923 1056.87V736.597H901.282V992.951H986.641V736.597H1072.69Z" fill="#F5EFE0"/>
<path d="M1348.68 736.597C1354.69 736.597 1359.78 738.682 1363.95 742.85C1368.57 747.018 1370.89 752.345 1370.89 758.829V1056.87C1370.89 1062.89 1368.57 1068.21 1363.95 1072.84C1359.78 1077.01 1354.69 1079.1 1348.68 1079.1H1199.47V1250H1114.11V736.597H1348.68ZM1199.47 822.049V992.951H1284.83V822.049H1199.47Z" fill="#F5EFE0"/>
<path d="M1669.08 992.951V1079.1H1519.87C1513.4 1079.1 1508.07 1077.01 1503.91 1072.84C1499.75 1068.21 1497.67 1062.89 1497.67 1056.87V822.049H1412.31V736.597H1497.67V651.146H1583.02V736.597H1669.08V822.049H1583.02V992.951H1669.08Z" fill="#F5EFE0"/>
<path d="M1795.86 736.597V1079.1H1710.5V736.597H1795.86ZM1795.86 565V651.146H1710.5V565H1795.86Z" fill="#F5EFE0"/>
<path d="M2094 822.049H1922.59V865.122H2071.79C2077.81 865.122 2082.9 867.206 2087.06 871.374C2091.69 875.543 2094 880.869 2094 887.353V1079.1H1837.23V992.951H2007.95V950.573H1859.44C1852.96 950.573 1847.64 948.489 1843.48 944.32C1839.31 939.689 1837.23 934.363 1837.23 928.342V736.597H2094V822.049Z" fill="#F5EFE0"/>
<path d="M1729 2098H760V4189H1729V2098Z" fill="#F5EFE0"/>
<path d="M1729.07 2068.66H760.287V2145.78H1729.07V2068.66Z" fill="#C6C1BA"/>
<path d="M1950.79 1726.45H538.575V2068.66H1950.79V1726.45Z" fill="#C6C1BA"/>
<path d="M1333.74 1471H1165.67H539.197V1541.36H1165.67H1333.74H1960.21V1471H1333.74Z" fill="#F5EFE0"/>
<path d="M1333.74 1541.36H1165.68H571.45C571.45 1541.36 607.966 1551.26 626.224 1572.03C644.482 1592.8 643.3 1606.84 643.3 1606.84V1660.36H1165.68H1333.74H1856.11V1605.96C1856.11 1605.96 1854.93 1592.8 1873.19 1572.03C1891.45 1551.25 1927.96 1541.36 1927.96 1541.36H1333.74Z" fill="#C6C1BA"/>
<path d="M571.45 1541.36H1927.96C1927.96 1541.36 1910.56 1547.43 1900.18 1552.94C1891.48 1557.54 1878.89 1566.42 1878.89 1566.42L571.45 1541.36Z" fill="#D9D2C1"/>
<path d="M1512.8 1948.56C1512.8 1948.56 1511.07 1995.1 1525.25 2033.54C1539.4 2071.9 1579.66 2092.76 1580.63 2093.96H1249.71H920.88C921.553 2093.63 960.134 2074.17 973.63 2035.36C987.244 1996.22 983.839 1948.56 983.839 1948.56H1249.29L1512.8 1948.56Z" fill="#F5EFE0"/>
<path d="M1054.98 2093.97C1057.53 2073.46 1057.92 2052.68 1056.07 2032.1C1055.11 2021.49 1053.48 2010.65 1048.2 2001.4C1042.93 1992.15 1033.28 1984.73 1022.64 1984.86C1021.89 2021.5 1023.54 2057.5 1020.88 2093.97H1054.98V2093.97Z" fill="#C6C1BA"/>
<path d="M1166.14 2093.97C1168.69 2073.46 1169.08 2052.68 1167.22 2032.1C1166.27 2021.49 1164.63 2010.65 1159.35 2001.4C1154.08 1992.15 1144.44 1984.73 1133.79 1984.86C1133.05 2021.5 1134.69 2057.5 1132.04 2093.97H1166.14V2093.97Z" fill="#C6C1BA"/>
<path d="M1277.29 2093.97C1279.84 2073.46 1280.23 2052.68 1278.38 2032.1C1277.42 2021.49 1275.78 2010.65 1270.51 2001.4C1265.23 1992.15 1255.59 1984.73 1244.94 1984.86C1244.2 2021.5 1245.85 2057.5 1243.19 2093.97H1277.29V2093.97Z" fill="#C6C1BA"/>
<path d="M1388.45 2093.97C1391 2073.46 1391.39 2052.68 1389.53 2032.1C1388.58 2021.49 1386.94 2010.65 1381.67 2001.4C1376.39 1992.15 1366.75 1984.73 1356.1 1984.86C1355.35 2021.5 1357 2057.5 1354.35 2093.97H1388.45V2093.97Z" fill="#C6C1BA"/>
<path d="M1499.6 2093.97C1502.15 2073.46 1502.54 2052.68 1500.69 2032.1C1499.73 2021.49 1498.09 2010.65 1492.82 2001.4C1487.54 1992.15 1477.9 1984.73 1467.25 1984.86C1466.51 2021.5 1468.16 2057.5 1465.5 2093.97H1499.6V2093.97Z" fill="#C6C1BA"/>
<path d="M619.399 1903.13C621.122 1862.67 641.318 1821.49 676.965 1802.27C699.692 1790.01 726.272 1787.49 752.061 1786.25C791.756 1784.35 831.575 1784.91 871.204 1787.94C871.532 1773.76 862.549 1760.58 850.84 1752.57C839.127 1744.57 824.993 1740.99 811.025 1738.52C727.611 1723.81 638.381 1745.92 571.478 1797.86C552.758 1812.39 535.345 1829.69 525.846 1851.41C516.983 1871.66 515.601 1894.4 516.554 1916.49C517.915 1948.16 523.99 1980.1 538.757 2008.14C554.934 2038.88 581.252 2063.16 611.581 2079.64C625.178 2087.03 687.259 2117.68 697.694 2098.63C708.088 2079.67 660.879 2034.12 652.882 2020.29C632.481 1985.07 617.643 1944.33 619.399 1903.13Z" fill="#D9D2C1"/>
<path d="M691.37 1948.08C710.627 1980.2 757.724 1990.88 789.7 1971.37C821.677 1951.87 834.022 1906.5 817.624 1872.83C838.416 1872.6 857.856 1884.46 871.603 1900.06C885.347 1915.66 894.305 1934.8 903.08 1953.65C906.201 1918.81 899.402 1882.14 878.702 1853.95C858.001 1825.76 822.076 1807.73 787.599 1813.59C767.822 1816.95 750.001 1827.53 733.936 1839.55C704.182 1861.82 668.681 1910.24 691.37 1948.08Z" fill="#D9D2C1"/>
<path d="M1652.13 1883.67C1636.18 1913.15 1638.98 1949.82 1651.1 1981.08C1658.39 1999.89 1668.95 2017.6 1683.24 2031.84C1710.44 2058.96 1749.32 2071.65 1787.6 2074.8C1764.56 2086.65 1737.07 2087.5 1711.77 2081.94C1686.46 2076.38 1662.91 2064.86 1639.99 2052.78C1624.61 2044.67 1608.95 2035.89 1598.26 2022.19C1584.31 2004.3 1580.73 1980.46 1580.44 1957.79C1580.08 1929.96 1584.24 1901.27 1598.47 1877.36C1620.65 1840.1 1665 1819.84 1708.34 1818.29C1729.88 1817.52 1774.67 1849.38 1740.41 1851.37C1722.85 1852.38 1711.5 1841.93 1691.77 1849.31C1675.15 1855.51 1660.58 1868.07 1652.13 1883.67Z" fill="#D9D2C1"/>
<path d="M1729.16 1801.17C1744.35 1807.53 1818.22 1812.49 1856.52 1835.59C1924.79 1876.77 1927.63 1946.28 1898.47 1990.89C1880.18 2018.88 1878.81 2031.81 1853.43 2053.58C1885.6 2066.41 1921.33 2047.48 1948.67 2026.22C1977.85 2003.52 2005 1976.35 2018.99 1942.14C2039.37 1892.32 2028.1 1832.77 1996.58 1789.13C1965.08 1745.49 1915.6 1716.94 1863.44 1703.65C1811.28 1690.37 1756.41 1691.34 1703.03 1698.29C1677.52 1701.61 1634.94 1714.36 1643.03 1748.89C1650.3 1779.86 1704.39 1790.81 1729.16 1801.17Z" fill="#D9D2C1"/>
<path d="M1719.71 1734.06H793.981V1835.59H1719.71V1734.06Z" fill="#D9D2C1"/>
<path d="M1855.71 1656.64C1903.43 1663.78 2060.3 1727.2 2051.66 1883.28C2038.75 2116.33 1859.18 2138.78 1777.45 2145.19C1705.14 2150.87 1622.72 2114.71 1578.52 2057.53C1534.32 2000.35 1529.06 1924.97 1562.39 1855.48C1573.67 1831.99 1610.18 1796.27 1649.49 1788.13C1720.06 1773.52 1793.87 1800.35 1817.41 1868.09C1823.5 1885.59 1825.27 1905.29 1818.29 1922.46C1811.3 1939.64 1794.24 1953.41 1775.61 1952.92C1756.98 1952.43 1739.52 1934.76 1742.57 1916.49C1743.3 1912.1 1745.05 1907.97 1746.16 1903.66C1754.49 1871.24 1720.41 1838.79 1686.82 1840.86C1653.23 1842.93 1625.63 1870.93 1614.58 1902.54C1591.54 1968.47 1635.75 2045.82 1704.34 2060.74C1807.56 2083.19 1932.9 2033.72 1936.6 1901.21C1938.75 1824.24 1874.09 1776.37 1816.31 1773.38L1771.23 1773.19L1249.71 1773.51H725.337L680.641 1773.7C623.366 1776.69 559.271 1824.41 561.402 1901.16C565.072 2033.29 689.319 2082.61 791.652 2060.23C859.636 2045.36 903.464 1968.23 880.626 1902.49C869.679 1870.97 842.311 1843.04 809.011 1840.98C775.711 1838.91 741.926 1871.28 750.189 1903.61C751.284 1907.9 753.019 1912.03 753.743 1916.4C756.764 1934.62 739.458 1952.23 720.993 1952.72C702.527 1953.2 685.606 1939.48 678.683 1922.36C671.759 1905.23 673.516 1885.59 679.549 1868.13C702.883 1800.6 776.055 1773.84 846.012 1788.41C884.974 1796.52 921.182 1832.13 932.354 1855.56C965.4 1924.85 960.183 2000.01 916.365 2057.03C872.547 2114.04 790.849 2150.1 719.162 2144.44C638.149 2138.04 460.131 2115.66 447.34 1883.27C438.778 1727.65 594.277 1664.41 641.588 1657.28L1855.71 1656.64Z" fill="#F5EFE0"/>
<path d="M805.508 1901.15C805.508 1937.36 776.157 1966.71 739.949 1966.71C703.745 1966.71 674.395 1937.35 674.395 1901.15C674.395 1864.94 703.745 1835.59 739.949 1835.59C776.157 1835.59 805.508 1864.94 805.508 1901.15Z" fill="#F5EFE0"/>
<path d="M1825.17 1907.5C1825.17 1943.71 1795.82 1973.06 1759.62 1973.06C1723.41 1973.06 1694.06 1943.71 1694.06 1907.5C1694.06 1871.3 1723.41 1841.95 1759.62 1841.95C1795.82 1841.95 1825.17 1871.3 1825.17 1907.5Z" fill="#F5EFE0"/>
<path d="M925.366 2325.49C925.154 2318.9 924.883 2312.32 924.555 2305.74C924.039 2295.49 923.36 2285.13 920.469 2275.38C917.577 2265.64 912.209 2256.43 904.208 2251.26C895.391 2245.56 884.597 2245.4 874.412 2246.08C863.069 2246.85 851.09 2248.78 842.344 2256.82C838.299 2260.53 835.204 2265.34 832.333 2270.22C820.678 2290.01 811.782 2314.89 819.475 2336.93C819.962 2324.24 822.621 2311.13 829.886 2301.3C837.155 2291.48 848.248 2278.16 862.278 2284.21C874.59 2289.52 885.159 2295.68 885.376 2344.76V7547.5H925.828V2325.49H925.366Z" fill="#D9D2C1"/>
<path d="M1107.15 2325.49C1106.94 2318.9 1106.67 2312.32 1106.34 2305.74C1105.82 2295.49 1105.14 2285.13 1102.25 2275.38C1099.35 2265.64 1093.99 2256.43 1085.99 2251.26C1077.17 2245.56 1066.38 2245.4 1056.19 2246.08C1044.85 2246.85 1032.87 2248.78 1024.13 2256.82C1020.08 2260.53 1016.99 2265.34 1014.11 2270.22C1002.46 2290.01 993.559 2314.89 1001.26 2336.93C1001.74 2324.24 1004.4 2311.13 1011.67 2301.3C1018.94 2291.48 1030.03 2278.16 1044.06 2284.21C1056.37 2289.52 1066.94 2295.68 1067.16 2344.76V7547.49H1107.61V2325.49H1107.15Z" fill="#D9D2C1"/>
<path d="M1288.93 2325.49C1288.72 2318.9 1288.45 2312.32 1288.12 2305.74C1287.61 2295.49 1286.92 2285.13 1284.03 2275.38C1281.14 2265.64 1275.77 2256.43 1267.77 2251.26C1258.95 2245.56 1248.16 2245.4 1237.97 2246.08C1226.63 2246.85 1214.65 2248.78 1205.9 2256.82C1201.86 2260.53 1198.76 2265.34 1195.89 2270.22C1184.23 2290.01 1175.34 2314.89 1183.03 2336.93C1183.52 2324.24 1186.18 2311.13 1193.44 2301.3C1200.71 2291.48 1211.81 2278.16 1225.84 2284.21C1238.15 2289.52 1248.72 2295.68 1248.93 2344.76V7547.49H1289.39V2325.49H1288.93Z" fill="#D9D2C1"/>
<path d="M1470.71 2325.49C1470.5 2318.9 1470.23 2312.32 1469.9 2305.74C1469.38 2295.49 1468.7 2285.13 1465.81 2275.38C1462.92 2265.64 1457.55 2256.43 1449.55 2251.26C1440.73 2245.56 1429.94 2245.4 1419.75 2246.08C1408.41 2246.85 1396.43 2248.78 1387.68 2256.82C1383.64 2260.53 1380.54 2265.34 1377.67 2270.22C1366.01 2290.01 1357.12 2314.89 1364.81 2336.93C1365.3 2324.24 1367.96 2311.13 1375.23 2301.3C1382.5 2291.48 1393.59 2278.16 1407.62 2284.21C1419.93 2289.52 1430.5 2295.68 1430.72 2344.76V7547.49H1471.17V2325.49H1470.71Z" fill="#D9D2C1"/>
<path d="M1652.49 2325.49C1652.28 2318.9 1652.01 2312.32 1651.68 2305.74C1651.16 2295.49 1650.49 2285.13 1647.59 2275.38C1644.7 2265.64 1639.33 2256.43 1631.33 2251.26C1622.52 2245.56 1611.73 2245.4 1601.54 2246.08C1590.19 2246.85 1578.21 2248.78 1569.46 2256.82C1565.42 2260.53 1562.32 2265.34 1559.45 2270.22C1547.79 2290.01 1538.9 2314.89 1546.6 2336.93C1547.08 2324.24 1549.74 2311.13 1557.01 2301.3C1564.28 2291.48 1575.37 2278.16 1589.4 2284.21C1601.71 2289.52 1612.28 2295.68 1612.5 2344.76V7547.49H1652.95V2325.49H1652.49Z" fill="#D9D2C1"/>
<path d="M760.287 2145.94H1729.07V2394C1729.07 2394 1643.05 2217.31 1319.99 2191.98C996.922 2166.66 760.287 2174.69 760.287 2174.69V2145.94Z" fill="#D9D2C1"/>
</g>
<defs>
<clipPath id="clip0_711_2686">
<rect width="2500" height="3580" fill="white"/>
</clipPath>
</defs>
</svg>
